<svg xmlns="http://www.w3.org/2000/svg" xmlns:xlink="http://www.w3.org/1999/xlink" width="500" zoomAndPan="magnify" viewBox="0 0 375 374.999991" height="500" preserveAspectRatio="xMidYMid meet" version="1.0"><defs><clipPath id="9e07a1a26d"><path d="M 55 237 L 131 237 L 131 312.625 L 55 312.625 Z M 55 237 " clip-rule="nonzero"/></clipPath><clipPath id="fd945afbf3"><path d="M 25.519531 99 L 216 99 L 216 286 L 25.519531 286 Z M 25.519531 99 " clip-rule="nonzero"/></clipPath><clipPath id="3ab7487e10"><path d="M 244 62.125 L 320 62.125 L 320 138 L 244 138 Z M 244 62.125 " clip-rule="nonzero"/></clipPath><clipPath id="0bce6c6b93"><path d="M 159 89 L 349.519531 89 L 349.519531 275 L 159 275 Z M 159 89 " clip-rule="nonzero"/></clipPath></defs><g clip-path="url(#9e07a1a26d)"><path fill="#ff1e57" d="M 92.550781 237.460938 C 113.28125 237.460938 130.085938 254.277344 130.085938 275.023438 C 130.085938 295.769531 113.28125 312.589844 92.550781 312.589844 C 71.824219 312.589844 55.015625 295.769531 55.015625 275.023438 C 55.015625 254.277344 71.824219 237.460938 92.550781 237.460938 " fill-opacity="1" fill-rule="nonzero"/></g><g clip-path="url(#fd945afbf3)"><path fill="#ff1e57" d="M 191.679688 163.949219 L 191.679688 252.410156 L 61.953125 177.445312 L 149.941406 126.605469 C 150.839844 126.085938 151.390625 125.128906 151.390625 124.089844 L 151.390625 102.722656 C 151.390625 100.488281 148.972656 99.089844 147.039062 100.207031 L 31.585938 166.921875 C 27.828125 169.089844 25.511719 173.105469 25.511719 177.445312 C 25.511719 181.789062 27.828125 185.804688 31.585938 187.976562 L 197.753906 283.992188 C 199.632812 285.078125 201.730469 285.625 203.824219 285.625 C 205.925781 285.625 208.019531 285.078125 209.898438 283.992188 C 213.65625 281.820312 215.972656 277.808594 215.972656 273.464844 L 215.972656 174.6875 C 215.972656 173.652344 215.421875 172.695312 214.527344 172.175781 L 196.039062 161.4375 C 194.101562 160.316406 191.679688 161.710938 191.679688 163.949219 " fill-opacity="1" fill-rule="nonzero"/></g><g clip-path="url(#3ab7487e10)"><path fill="#333333" d="M 282.453125 137.289062 C 261.726562 137.289062 244.917969 120.46875 244.917969 99.726562 C 244.917969 78.976562 261.726562 62.160156 282.453125 62.160156 C 303.1875 62.160156 319.988281 78.976562 319.988281 99.726562 C 319.988281 120.46875 303.1875 137.289062 282.453125 137.289062 " fill-opacity="1" fill-rule="nonzero"/></g><g clip-path="url(#0bce6c6b93)"><path fill="#333333" d="M 183.328125 210.800781 L 183.328125 122.335938 L 313.054688 197.300781 L 225.066406 248.144531 C 224.167969 248.664062 223.617188 249.621094 223.617188 250.660156 L 223.617188 272.027344 C 223.617188 274.261719 226.03125 275.660156 227.96875 274.542969 L 343.421875 207.828125 C 347.179688 205.65625 349.496094 201.644531 349.496094 197.300781 C 349.496094 192.957031 347.179688 188.945312 343.421875 186.773438 L 177.253906 90.753906 C 175.375 89.667969 173.277344 89.125 171.179688 89.125 C 169.082031 89.125 166.988281 89.667969 165.105469 90.753906 C 161.347656 92.925781 159.03125 96.9375 159.03125 101.28125 L 159.03125 200.0625 C 159.03125 201.097656 159.582031 202.054688 160.476562 202.574219 L 178.96875 213.3125 C 180.902344 214.433594 183.328125 213.035156 183.328125 210.800781 " fill-opacity="1" fill-rule="nonzero"/></g></svg>